<?xml version="1.0" standalone="no"?>
<!DOCTYPE svg PUBLIC "-//W3C//DTD SVG 1.1//EN" "http://www.w3.org/Graphics/SVG/1.1/DTD/svg11.dtd">
<svg width="34mm" height="29mm" viewBox="-17 -19 34 29" xmlns="http://www.w3.org/2000/svg" version="1.1">
<title>OpenSCAD Model</title>
<path d="
M 16.5395,8.69098 L 16.4545,8.5 L 0.866028,-18.5 L 0.669128,-18.7431 L 0.406738,-18.9135 L 0.104523,-18.9945
 L -0.207916,-18.9781 L -0.5,-18.866 L -0.743149,-18.6691 L -0.866028,-18.5 L -16.4545,8.5 L -16.5666,8.79208
 L -16.583,9.10452 L -16.502,9.40674 L -16.3316,9.66913 L -16.0884,9.86603 L -15.7964,9.97815 L -15.5884,10
 L 15.5884,10 L 15.8975,9.95105 L 16.1762,9.80902 L 16.3975,9.58778 L 16.5395,9.30902 L 16.5884,9
 z
M 13.9414,7.80902 L 13.7994,8.08778 L 13.5782,8.30902 L 13.2994,8.45105 L 12.9904,8.5 L -12.9904,8.5
 L -13.1983,8.47815 L -13.4904,8.36603 L -13.7335,8.16913 L -13.9039,7.90674 L -13.9849,7.60452 L -13.9685,7.29208
 L -13.8564,7 L -0.866028,-15.5 L -0.743149,-15.6691 L -0.5,-15.866 L -0.207916,-15.9781 L 0.104523,-15.9945
 L 0.406738,-15.9135 L 0.669128,-15.7431 L 0.866028,-15.5 L 13.8564,7 L 13.9414,7.19098 L 13.9904,7.5
 z
" stroke="black" fill="lightgray" stroke-width="0.5"/>
</svg>
