<?xml version="1.0" standalone="no"?>
<!DOCTYPE svg PUBLIC "-//W3C//DTD SVG 1.1//EN" "http://www.w3.org/Graphics/SVG/1.1/DTD/svg11.dtd">
<svg width="86mm" height="82mm" viewBox="-43 -41 86 82" xmlns="http://www.w3.org/2000/svg" version="1.1">
<title>OpenSCAD Model</title>
<path d="
M 11.2893,40.4693 L 11.5646,40.329 L 11.783,40.1106 L 11.9233,39.8353 L 11.9716,39.5301 L 11.9191,39.1986
 L 11.8239,38.9848 L 11.5614,38.5301 L 11.4493,38.238 L 11.433,37.9256 L 11.5139,37.6234 L 11.6843,37.361
 L 11.9275,37.1641 L 12.2196,37.052 L 12.4275,37.0301 L 20.7233,37.0301 L 21.1071,36.9693 L 21.3584,36.8413
 L 21.7206,36.4391 L 25.8159,29.3457 L 25.9552,28.9829 L 25.9714,28.6744 L 25.8914,28.3759 L 25.7231,28.1168
 L 25.483,27.9223 L 25.1696,27.802 L 24.9369,27.7776 L 24.4119,27.7776 L 24.1029,27.7286 L 23.8241,27.5866
 L 23.6029,27.3654 L 23.4608,27.0866 L 23.4119,26.7776 L 23.4608,26.4686 L 23.5459,26.2776 L 28.5379,17.6311
 L 28.7348,17.3879 L 28.9972,17.2175 L 29.2994,17.1366 L 29.6119,17.1529 L 29.904,17.2651 L 34.166,19.7257
 L 34.5288,19.865 L 34.8373,19.8812 L 35.1357,19.8012 L 35.3949,19.6329 L 35.6395,19.3309 L 40.5528,10.8207
 L 40.6921,10.4579 L 40.7083,10.1493 L 40.6283,9.85085 L 40.4601,9.59175 L 40.2199,9.39729 L 39.9065,9.27699
 L 39.6738,9.25253 L 39.1488,9.25253 L 38.8398,9.20358 L 38.561,9.06155 L 38.3398,8.84032 L 38.1978,8.56155
 L 38.1488,8.25253 L 38.1978,7.94351 L 38.2828,7.75253 L 42.4307,0.56813 L 42.5699,0.205322 L 42.5847,-0.0762787
 L 42.4174,-0.591049 L 38.3221,-7.68439 L 38.0775,-7.98643 L 37.8184,-8.15468 L 37.5199,-8.23466 L 37.2114,-8.21849
 L 36.923,-8.10777 L 36.6621,-7.89651 L 36.5245,-7.70714 L 36.262,-7.25255 L 36.0651,-7.0094 L 35.8027,-6.839
 L 35.5005,-6.75803 L 35.1881,-6.7744 L 34.896,-6.88652 L 34.6529,-7.08342 L 34.53,-7.25255 L 29.5379,-15.899
 L 29.4258,-16.1911 L 29.4094,-16.5036 L 29.4904,-16.8058 L 29.6608,-17.0682 L 29.904,-17.2651 L 34.166,-19.7257
 L 34.4679,-19.9703 L 34.6362,-20.2294 L 34.7162,-20.5279 L 34.7,-20.8364 L 34.5608,-21.1992 L 29.6474,-29.7094
 L 29.4028,-30.0114 L 29.1437,-30.1797 L 28.8452,-30.2597 L 28.5367,-30.2435 L 28.2483,-30.1328 L 27.9874,-29.9216
 L 27.8498,-29.7321 L 27.5873,-29.2776 L 27.3904,-29.0344 L 27.1281,-28.864 L 26.8258,-28.7831 L 26.5134,-28.7994
 L 26.2213,-28.9116 L 25.9782,-29.1085 L 25.8553,-29.2776 L 21.7074,-36.462 L 21.4628,-36.764 L 21.2263,-36.9176
 L 20.6969,-37.0301 L 12.5062,-37.0301 L 12.1223,-36.9693 L 11.847,-36.829 L 11.6286,-36.6106 L 11.4883,-36.3353
 L 11.44,-36.0301 L 11.4925,-35.6986 L 11.5877,-35.4848 L 11.8502,-35.0301 L 11.9623,-34.738 L 11.9787,-34.4256
 L 11.8977,-34.1234 L 11.7273,-33.861 L 11.4841,-33.6641 L 11.192,-33.552 L 10.9841,-33.5301 L 1,-33.5301
 L 0.690979,-33.5791 L 0.412216,-33.7211 L 0.190979,-33.9423 L 0.0489502,-34.2211 L 0,-34.5301 L 0,-39.4514
 L -0.060791,-39.8353 L -0.20108,-40.1106 L -0.41954,-40.329 L -0.694855,-40.4693 L -1.07869,-40.5301 L -10.9054,-40.5301
 L -11.2893,-40.4693 L -11.5646,-40.329 L -11.783,-40.1106 L -11.9233,-39.8353 L -11.9716,-39.5301 L -11.9191,-39.1986
 L -11.8239,-38.9848 L -11.5614,-38.5301 L -11.4493,-38.238 L -11.433,-37.9256 L -11.5139,-37.6234 L -11.6843,-37.361
 L -11.9275,-37.1641 L -12.2196,-37.052 L -12.4275,-37.0301 L -20.7233,-37.0301 L -21.1071,-36.9693 L -21.3584,-36.8413
 L -21.7206,-36.4391 L -25.8159,-29.3457 L -25.9552,-28.9829 L -25.9714,-28.6744 L -25.8914,-28.3759 L -25.7231,-28.1168
 L -25.483,-27.9223 L -25.1696,-27.802 L -24.9369,-27.7776 L -24.4119,-27.7776 L -24.1029,-27.7286 L -23.8241,-27.5866
 L -23.6029,-27.3654 L -23.4608,-27.0866 L -23.4119,-26.7776 L -23.4608,-26.4686 L -23.5459,-26.2776 L -28.5379,-17.6311
 L -28.7348,-17.3879 L -28.9972,-17.2175 L -29.2994,-17.1366 L -29.6119,-17.1529 L -29.904,-17.2651 L -34.166,-19.7257
 L -34.5288,-19.865 L -34.8373,-19.8812 L -35.1357,-19.8012 L -35.3949,-19.6329 L -35.6395,-19.3309 L -40.5528,-10.8207
 L -40.6921,-10.4579 L -40.7083,-10.1493 L -40.6283,-9.85085 L -40.4601,-9.59175 L -40.2199,-9.39729 L -39.9065,-9.27699
 L -39.6738,-9.25253 L -39.1488,-9.25253 L -38.8398,-9.20358 L -38.561,-9.06155 L -38.3398,-8.84032 L -38.1978,-8.56155
 L -38.1488,-8.25253 L -38.1978,-7.94351 L -38.2828,-7.75253 L -42.4307,-0.56813 L -42.5699,-0.205322 L -42.5847,0.0762787
 L -42.4174,0.591049 L -38.3221,7.68439 L -38.0775,7.98643 L -37.8184,8.15468 L -37.5199,8.23466 L -37.2114,8.21849
 L -36.923,8.10777 L -36.6621,7.89651 L -36.5245,7.70714 L -36.262,7.25255 L -36.0651,7.0094 L -35.8027,6.839
 L -35.5005,6.75803 L -35.1881,6.7744 L -34.896,6.88652 L -34.6529,7.08342 L -34.53,7.25255 L -29.5379,15.899
 L -29.4258,16.1911 L -29.4094,16.5036 L -29.4904,16.8058 L -29.6608,17.0682 L -29.904,17.2651 L -34.166,19.7257
 L -34.4679,19.9703 L -34.6362,20.2294 L -34.7162,20.5279 L -34.7,20.8364 L -34.5608,21.1992 L -29.6474,29.7094
 L -29.4028,30.0114 L -29.1437,30.1797 L -28.8452,30.2597 L -28.5367,30.2435 L -28.2483,30.1328 L -27.9874,29.9216
 L -27.8498,29.7321 L -27.5873,29.2776 L -27.3904,29.0344 L -27.1281,28.864 L -26.8258,28.7831 L -26.5134,28.7994
 L -26.2213,28.9116 L -25.9782,29.1085 L -25.8553,29.2776 L -21.7074,36.462 L -21.4628,36.764 L -21.2263,36.9176
 L -20.6969,37.0301 L -12.5062,37.0301 L -12.1223,36.9693 L -11.847,36.829 L -11.6286,36.6106 L -11.4883,36.3353
 L -11.44,36.0301 L -11.4925,35.6986 L -11.5877,35.4848 L -11.8502,35.0301 L -11.9623,34.738 L -11.9787,34.4256
 L -11.8977,34.1234 L -11.7273,33.861 L -11.4841,33.6641 L -11.192,33.552 L -10.9841,33.5301 L -1,33.5301
 L -0.690979,33.5791 L -0.412216,33.7211 L -0.190979,33.9423 L -0.0489502,34.2211 L 0,34.5301 L 0,39.4514
 L 0.060791,39.8353 L 0.20108,40.1106 L 0.41954,40.329 L 0.694855,40.4693 L 1.07869,40.5301 L 10.9054,40.5301
 z
M -0.406738,-6.68452 L -0.669128,-6.85492 L -0.866028,-7.09807 L -13.8564,-29.5981 L -13.9414,-29.789 L -13.9904,-30.0981
 L -13.9414,-30.4071 L -13.7994,-30.6859 L -13.5782,-30.9071 L -13.2994,-31.0491 L -12.9904,-31.0981 L 12.9904,-31.0981
 L 13.1983,-31.0762 L 13.4904,-30.9641 L 13.7335,-30.7672 L 13.9039,-30.5048 L 13.9849,-30.2026 L 13.9685,-29.8902
 L 13.8564,-29.5981 L 0.866028,-7.09807 L 0.743149,-6.92894 L 0.5,-6.73204 L 0.207916,-6.61992 L -0.104523,-6.60355
 z
M 6.37221,-2.82088 L 6.08012,-2.933 L 5.83698,-3.1299 L 5.66658,-3.39229 L 5.5856,-3.6945 L 5.60197,-4.00694
 L 5.7141,-4.29903 L 18.7045,-26.799 L 18.8274,-26.9681 L 19.0705,-27.1651 L 19.3626,-27.2772 L 19.675,-27.2935
 L 19.9772,-27.2126 L 20.2396,-27.0422 L 20.4365,-26.799 L 33.4269,-4.29904 L 33.5119,-4.10805 L 33.5609,-3.79904
 L 33.5119,-3.49002 L 33.3699,-3.21126 L 33.1487,-2.99002 L 32.8699,-2.84798 L 32.5609,-2.79904 L 6.58012,-2.79903
 z
M -32.5609,-2.79904 L -32.7688,-2.82089 L -33.0609,-2.93301 L -33.304,-3.12991 L -33.4744,-3.3923 L -33.5554,-3.69452
 L -33.539,-4.00694 L -33.4269,-4.29904 L -20.4365,-26.799 L -20.3136,-26.9682 L -20.0705,-27.1651 L -19.7784,-27.2772
 L -19.466,-27.2935 L -19.1638,-27.2126 L -18.9014,-27.0422 L -18.7045,-26.799 L -5.7141,-4.29903 L -5.62906,-4.10805
 L -5.58012,-3.79903 L -5.62906,-3.49002 L -5.7711,-3.21124 L -5.99234,-2.99001 L -6.2711,-2.84798 L -6.58012,-2.79903
 z
M -19.9772,27.2126 L -20.2396,27.0422 L -20.4365,26.799 L -33.4269,4.29904 L -33.5119,4.10805 L -33.5609,3.79904
 L -33.5119,3.49002 L -33.3699,3.21126 L -33.1487,2.99002 L -32.8699,2.84798 L -32.5609,2.79904 L -6.58012,2.79903
 L -6.37221,2.82088 L -6.08012,2.933 L -5.83698,3.1299 L -5.66658,3.39229 L -5.5856,3.6945 L -5.60197,4.00694
 L -5.7141,4.29903 L -18.7045,26.799 L -18.8274,26.9681 L -19.0705,27.1651 L -19.3626,27.2772 L -19.675,27.2935
 z
M 19.1638,27.2126 L 18.9014,27.0422 L 18.7045,26.799 L 5.7141,4.29903 L 5.62906,4.10805 L 5.58012,3.79903
 L 5.62906,3.49002 L 5.7711,3.21124 L 5.99234,2.99001 L 6.2711,2.84798 L 6.58012,2.79903 L 32.5609,2.79904
 L 32.7688,2.82089 L 33.0609,2.93301 L 33.304,3.12991 L 33.4744,3.3923 L 33.5554,3.69452 L 33.539,4.00694
 L 33.4269,4.29904 L 20.4365,26.799 L 20.3136,26.9682 L 20.0705,27.1651 L 19.7784,27.2772 L 19.466,27.2935
 z
M -12.9904,31.0981 L -13.1983,31.0762 L -13.4904,30.9641 L -13.7335,30.7672 L -13.9039,30.5048 L -13.9849,30.2026
 L -13.9685,29.8902 L -13.8564,29.5981 L -0.866028,7.09807 L -0.743149,6.92894 L -0.5,6.73204 L -0.207916,6.61992
 L 0.104523,6.60355 L 0.406738,6.68452 L 0.669128,6.85492 L 0.866028,7.09807 L 13.8564,29.5981 L 13.9414,29.789
 L 13.9904,30.0981 L 13.9414,30.4071 L 13.7994,30.6859 L 13.5782,30.9071 L 13.2994,31.0491 L 12.9904,31.0981
 z
" stroke="black" fill="lightgray" stroke-width="0.5"/>
</svg>
